<?xml version="1.0" encoding="UTF-8" standalone="no"?><!DOCTYPE svg PUBLIC "-//W3C//DTD SVG 1.1//EN" "http://www.w3.org/Graphics/SVG/1.1/DTD/svg11.dtd"><svg width="100%" height="100%" viewBox="0 0 1667 1667" version="1.1" xmlns="http://www.w3.org/2000/svg" xmlns:xlink="http://www.w3.org/1999/xlink" xml:space="preserve" xmlns:serif="http://www.serif.com/" style="fill-rule:evenodd;clip-rule:evenodd;stroke-linecap:round;stroke-linejoin:round;stroke-miterlimit:1.5;"><rect id="Artboard1" x="0" y="0" width="1666.667" height="1666.667" style="fill:none;"/><circle cx="833.333" cy="833.333" r="810.417" style="stroke:#000;stroke-width:0.21px;"/><g><path d="M510.365,225.444l503.325,840.057c0,0 10.834,28.811 0,70.891c-3.011,11.695 -180.772,304.831 -180.772,304.831c0,0 -433.923,-685.797 -506.317,-843.742c-7.348,-16.032 -7.831,-46.401 -0.553,-67.206c0.707,-2.021 184.316,-304.831 184.316,-304.831Z" style="fill:#fff;stroke:#000;stroke-width:0.21px;"/><path d="M1159.016,228.988c0,0 -225.865,371.577 -226.851,375.722c-9.175,38.575 -9.465,11.942 0,49.624c0.608,2.42 184.316,311.92 184.316,311.92c0,0 186.089,-307.194 223.306,-379.266c8.132,-15.747 7.988,-37.348 0,-53.168c-30.129,-59.667 -180.772,-304.831 -180.772,-304.831Z" style="fill:url(#_Linear1);stroke:#000;stroke-width:0.21px;"/></g><defs><linearGradient id="_Linear1" x1="0" y1="0" x2="1" y2="0" gradientUnits="userSpaceOnUse" gradientTransform="matrix(46.07909,-715.998169,715.998169,46.07909,1112.937261,952.075604)"><stop offset="0" style="stop-color:#006363;stop-opacity:1"/><stop offset="1" style="stop-color:#097e88;stop-opacity:1"/></linearGradient></defs></svg>